<?xml version="1.0" encoding="UTF-8" standalone="no"?>
<!-- Created with Inkscape (http://www.inkscape.org/) -->

<svg
   width="1768.4755mm"
   height="1554.8584mm"
   viewBox="0 0 1768.4755 1554.8584"
   version="1.1"
   id="svg1"
   xml:space="preserve"
   xmlns="http://www.w3.org/2000/svg"
   xmlns:svg="http://www.w3.org/2000/svg"><defs
     id="defs1"><rect
       x="5153.8462"
       y="1084.6154"
       width="7600"
       height="2684.6155"
       id="rect2" /><rect
       x="4953.8462"
       y="200"
       width="7930.769"
       height="3661.5386"
       id="rect1" /><rect
       x="5153.8462"
       y="1084.6154"
       width="7600"
       height="2684.6155"
       id="rect2-4" /><rect
       x="5153.8462"
       y="1084.6154"
       width="7600"
       height="2684.6155"
       id="rect12" /><rect
       x="5153.8462"
       y="1084.6154"
       width="7600"
       height="2684.6155"
       id="rect13" /><rect
       x="5153.8462"
       y="1084.6154"
       width="7600"
       height="2684.6155"
       id="rect2-8" /><rect
       x="4953.8462"
       y="200"
       width="7930.769"
       height="3661.5386"
       id="rect1-9" /><rect
       x="5153.8462"
       y="1084.6154"
       width="7600"
       height="2684.6155"
       id="rect2-4-1" /><rect
       x="5153.8462"
       y="1084.6154"
       width="7600"
       height="2684.6155"
       id="rect2-87" /><rect
       x="4953.8462"
       y="200"
       width="7930.769"
       height="3661.5386"
       id="rect1-4" /><rect
       x="5153.8462"
       y="1084.6154"
       width="7600"
       height="2684.6155"
       id="rect2-4-6" /></defs><g
     id="layer2"
     style="display:inline"
     transform="translate(-2064.5469,-1135.4745)" /><g
     id="layer1"
     style="display:inline"
     transform="translate(-2064.5469,-1135.4745)"><g
       id="layer10"
       transform="translate(461.13094,385.49791)"
       style="display:inline;opacity:1"><g
         id="g13"
         style="display:none;fill:#1a1a1a"><text
           xml:space="preserve"
           style="font-style:normal;font-variant:normal;font-weight:bold;font-stretch:normal;font-size:65.2639px;font-family:Montserrat;-inkscape-font-specification:'Montserrat Bold';text-align:start;writing-mode:lr-tb;direction:ltr;text-anchor:start;display:inline;opacity:1;fill:#1a1a1a;fill-opacity:0.996078;stroke-width:0.264583"
           x="1479.5505"
           y="709.08386"
           id="text9"><tspan
             id="tspan9"
             style="font-style:normal;font-variant:normal;font-weight:600;font-stretch:normal;font-size:65.2639px;font-family:Montserrat;-inkscape-font-specification:'Montserrat Semi-Bold';fill:#1a1a1a;fill-opacity:0.996078;stroke-width:0.264583"
             x="1479.5505"
             y="709.08386">ESTUDE COM DIREÇÃO. EVOLUA COM PROPÓSITO.</tspan></text><text
           xml:space="preserve"
           transform="matrix(0.26458332,0,0,0.26458332,68.972576,85.757165)"
           id="text11"
           style="font-style:normal;font-variant:normal;font-weight:bold;font-stretch:normal;font-size:1000px;font-family:Montserrat;-inkscape-font-specification:'Montserrat Bold';text-align:start;writing-mode:lr-tb;direction:ltr;white-space:pre;shape-inside:url(#rect12);display:inline;fill:#1a1a1a;fill-opacity:0.996078"><tspan
             x="5153.8457"
             y="2003.7088"
             id="tspan1">MISSÃO</tspan></text><text
           xml:space="preserve"
           transform="matrix(0.26458332,0,0,0.26458332,1244.2521,85.757165)"
           id="text12"
           style="font-style:normal;font-variant:normal;font-weight:bold;font-stretch:normal;font-size:1000px;font-family:Montserrat;-inkscape-font-specification:'Montserrat Bold';text-align:start;writing-mode:lr-tb;direction:ltr;white-space:pre;shape-inside:url(#rect13);display:inline;fill:#1a1a1a;fill-opacity:0.996078"><tspan
             x="5153.8457"
             y="2003.7088"
             id="tspan2">OAB</tspan></text></g><g
         id="g14"
         style="display:inline;opacity:1;fill:#ffffff"
         transform="translate(148.86135,1580.8709)"><path
           style="font-weight:600;font-size:65.2639px;font-family:Montserrat;-inkscape-font-specification:'Montserrat Semi-Bold';display:inline;opacity:1;fill:#ffffff;fill-opacity:0.99607843;stroke-width:0.264583"
           d="m 1485.6853,709.08386 v -45.68473 h 33.3499 v 7.11377 h -24.8655 v 31.4572 h 25.7792 v 7.11376 z m 7.8317,-19.7097 v -6.98323 h 22.7118 v 6.98323 z m 50.0574,20.36234 q -5.3516,0 -10.2464,-1.50107 -4.8948,-1.56633 -7.7664,-3.9811 l 2.9369,-6.59165 q 2.7411,2.15371 6.7874,3.58951 4.0464,1.43581 8.2885,1.43581 3.5895,0 5.8085,-0.78317 2.219,-0.78316 3.2632,-2.08844 1.0442,-1.37054 1.0442,-3.0674 0,-2.08845 -1.501,-3.32846 -1.5011,-1.30528 -3.9159,-2.02318 -2.3495,-0.78317 -5.2863,-1.43581 -2.8717,-0.65264 -5.8085,-1.50107 -2.8716,-0.91369 -5.2864,-2.28424 -2.3495,-1.4358 -3.8506,-3.7853 -1.501,-2.3495 -1.501,-6.00428 0,-3.72004 1.9579,-6.78745 2.0231,-3.13266 6.0695,-4.96005 4.1116,-1.89266 10.377,-1.89266 4.1116,0 8.158,1.04423 4.0463,1.04422 7.0485,3.00213 l -2.6759,6.59166 q -3.0674,-1.82739 -6.3306,-2.67582 -3.2632,-0.9137 -6.2653,-0.9137 -3.5242,0 -5.7432,0.84843 -2.1537,0.84844 -3.1979,2.21898 -0.979,1.37054 -0.979,3.13266 0,2.08845 1.4358,3.39373 1.5011,1.24001 3.8506,1.95791 2.4147,0.71791 5.3516,1.43581 2.9369,0.65264 5.8085,1.50107 2.9369,0.84843 5.2864,2.21897 2.4147,1.37054 3.8505,3.72004 1.5011,2.34951 1.5011,5.93902 0,3.65478 -2.0232,6.78745 -1.9579,3.0674 -6.0695,4.96005 -4.1116,1.82739 -10.377,1.82739 z m 35.5036,-0.65264 v -38.5057 h -15.1413 v -7.17903 h 38.7668 v 7.17903 h -15.1412 v 38.5057 z m 48.8003,0.65264 q -9.398,0 -14.7496,-5.28637 -5.2864,-5.28638 -5.2864,-15.27176 v -25.77924 h 8.4843 v 25.45292 q 0,7.0485 3.0022,10.24644 3.0674,3.19793 8.6148,3.19793 5.5474,0 8.5496,-3.19793 3.0021,-3.19794 3.0021,-10.24644 v -25.45292 h 8.3538 v 25.77924 q 0,9.98538 -5.3516,15.27176 -5.2864,5.28637 -14.6192,5.28637 z m 31.8488,-0.65264 v -45.68473 h 19.9707 q 7.4401,0 13.0528,2.87161 5.6127,2.87162 8.7454,7.9622 3.1327,5.09058 3.1327,12.00856 0,6.85271 -3.1327,12.00855 -3.1327,5.09059 -8.7454,7.9622 -5.6127,2.87161 -13.0528,2.87161 z m 8.4843,-7.17903 h 11.0949 q 5.0905,0 8.8759,-1.95791 3.7853,-1.95792 5.8084,-5.48217 2.0885,-3.52425 2.0885,-8.22325 0,-4.76427 -2.0885,-8.22325 -2.0231,-3.52426 -5.8084,-5.48217 -3.7854,-1.95792 -8.8759,-1.95792 h -11.0949 z m 45.4237,7.17903 v -45.68473 h 33.3498 v 7.11377 h -24.8655 v 31.4572 h 25.7792 v 7.11376 z m 7.8317,-19.7097 v -6.98323 h 22.7118 v 6.98323 z m 75.0534,20.36234 q -5.2211,0 -9.7243,-1.69686 -4.438,-1.76213 -7.7664,-4.89479 -3.2632,-3.19793 -5.0906,-7.50535 -1.8274,-4.30742 -1.8274,-9.398 0,-5.09059 1.8274,-9.398 1.8274,-4.30742 5.1558,-7.44009 3.3285,-3.19793 7.7664,-4.89479 4.438,-1.76213 9.7243,-1.76213 5.6127,0 10.2465,1.95792 4.6337,1.89265 7.8316,5.67796 l -5.4821,5.15585 q -2.4801,-2.67582 -5.5475,-3.9811 -3.0674,-1.37054 -6.6569,-1.37054 -3.5895,0 -6.5916,1.17475 -2.9369,1.17475 -5.1559,3.32846 -2.1537,2.15371 -3.3937,5.09058 -1.1747,2.93688 -1.1747,6.46113 0,3.52425 1.1747,6.46112 1.24,2.93688 3.3937,5.09059 2.219,2.15371 5.1559,3.32846 3.0021,1.17475 6.5916,1.17475 3.5895,0 6.6569,-1.30528 3.0674,-1.37054 5.5475,-4.11163 l 5.4821,5.22111 q -3.1979,3.72005 -7.8316,5.67796 -4.6338,1.95792 -10.3117,1.95792 z m 44.9211,0 q -5.3516,0 -9.8549,-1.76212 -4.5032,-1.76213 -7.8316,-4.8948 -3.3285,-3.19793 -5.1559,-7.44008 -1.8274,-4.30742 -1.8274,-9.398 0,-5.09059 1.8274,-9.33274 1.8274,-4.30742 5.1559,-7.44009 3.3284,-3.19793 7.8316,-4.96005 4.5033,-1.76213 9.7896,-1.76213 5.3517,0 9.7896,1.76213 4.5032,1.76212 7.8317,4.96005 3.3284,3.13267 5.1558,7.44009 1.8274,4.24215 1.8274,9.33274 0,5.09058 -1.8274,9.398 -1.8274,4.30742 -5.1558,7.44008 -3.3285,3.13267 -7.8317,4.8948 -4.4379,1.76212 -9.7243,1.76212 z m -0.065,-7.44008 q 3.459,0 6.3959,-1.17475 2.9369,-1.17475 5.0906,-3.32846 2.1537,-2.21898 3.3284,-5.09059 1.2401,-2.93687 1.2401,-6.46112 0,-3.52425 -1.2401,-6.39587 -1.1747,-2.93687 -3.3284,-5.09058 -2.1537,-2.21897 -5.0906,-3.39372 -2.9369,-1.17475 -6.3959,-1.17475 -3.459,0 -6.3958,1.17475 -2.8716,1.17475 -5.0906,3.39372 -2.1537,2.15371 -3.3937,5.09058 -1.1748,2.87162 -1.1748,6.39587 0,3.45898 1.1748,6.39586 1.24,2.93687 3.3937,5.15585 2.1537,2.15371 5.0906,3.32846 2.9368,1.17475 6.3958,1.17475 z m 33.611,6.78744 v -45.68473 h 6.9832 l 19.9708,33.34986 h -3.6548 l 19.6445,-33.34986 h 6.9832 l 0.065,45.68473 h -8.0275 l -0.065,-33.0888 h 1.6969 l -16.7076,27.86769 h -3.7853 l -16.9686,-27.86769 h 1.9579 v 33.0888 z m 80.3398,0 v -45.68473 h 19.9707 q 7.4401,0 13.0528,2.87161 5.6127,2.87162 8.7454,7.9622 3.1327,5.09058 3.1327,12.00856 0,6.85271 -3.1327,12.00855 -3.1327,5.09059 -8.7454,7.9622 -5.6127,2.87161 -13.0528,2.87161 z m 8.4843,-7.17903 h 11.0949 q 5.0905,0 8.8759,-1.95791 3.7853,-1.95792 5.8084,-5.48217 2.0885,-3.52425 2.0885,-8.22325 0,-4.76427 -2.0885,-8.22325 -2.0231,-3.52426 -5.8084,-5.48217 -3.7854,-1.95792 -8.8759,-1.95792 h -11.0949 z m 45.4237,7.17903 v -45.68473 h 8.4843 v 45.68473 z m 20.8192,0 v -45.68473 h 18.7307 q 9.137,0 14.2928,4.30742 5.2211,4.30742 5.2211,11.94329 0,5.02532 -2.3495,8.6801 -2.3495,3.58952 -6.7221,5.54743 -4.3075,1.89266 -10.377,1.89266 h -14.097 l 3.7853,-3.85057 v 17.1644 z m 29.8909,0 -11.5517,-16.57703 h 9.0716 l 11.617,16.57703 z m -21.4066,-16.25071 -3.7853,-4.04636 h 13.7054 q 5.6127,0 8.4191,-2.41477 2.8716,-2.41476 2.8716,-6.72218 0,-4.37268 -2.8716,-6.72218 -2.8064,-2.3495 -8.4191,-2.3495 h -13.7054 l 3.7853,-4.17689 z m 39.2236,16.25071 v -45.68473 h 33.3499 v 7.11377 h -24.8655 v 31.4572 h 25.7792 v 7.11376 z m 7.8317,-19.7097 v -6.98323 h 22.7118 v 6.98323 z m 57.0407,20.36234 q -5.2211,0 -9.7243,-1.69686 -4.438,-1.76213 -7.7664,-4.89479 -3.2632,-3.19793 -5.0906,-7.50535 -1.8274,-4.30742 -1.8274,-9.398 0,-5.09059 1.8274,-9.398 1.8274,-4.30742 5.1559,-7.44009 3.3284,-3.19793 7.7664,-4.89479 4.4379,-1.76213 9.7243,-1.76213 5.6127,0 10.2464,1.95792 4.6337,1.89265 7.8317,5.67796 l -5.4822,5.15585 q -2.48,-2.67582 -5.5474,-3.9811 -3.0674,-1.37054 -6.6569,-1.37054 -3.5896,0 -6.5917,1.17475 -2.9369,1.17475 -5.1558,3.32846 -2.1537,2.15371 -3.3938,5.09058 -1.1747,2.93688 -1.1747,6.46113 0,3.52425 1.1747,6.46112 1.2401,2.93688 3.3938,5.09059 2.2189,2.15371 5.1558,3.32846 3.0021,1.17475 6.5917,1.17475 3.5895,0 6.6569,-1.30528 3.0674,-1.37054 5.5474,-4.11163 l 5.4822,5.22111 q -3.198,3.72005 -7.8317,5.67796 -4.6337,1.95792 -10.3117,1.95792 z m -2.2842,14.22753 q -1.7621,0 -3.2632,-0.39158 -1.5011,-0.32632 -2.7411,-0.97896 l 1.5011,-3.85057 q 1.0442,0.52211 2.0884,0.78317 1.1095,0.26105 2.3495,0.26105 1.8927,0 2.6758,-0.65264 0.7832,-0.65264 0.7832,-1.69686 0,-0.97896 -0.8484,-1.56633 -0.7832,-0.58738 -2.6106,-0.58738 h -2.0232 l 1.7622,-6.65692 h 4.4379 l -0.9137,3.65478 q 2.8716,0.32632 4.2422,1.82739 1.4358,1.56634 1.4358,3.65478 0,2.87161 -2.4148,4.50321 -2.4148,1.69686 -6.4611,1.69686 z m 20.5437,-14.88017 20.5582,-45.68473 h 8.3537 l 20.6234,45.68473 h -8.8759 l -17.6865,-41.18152 h 3.3938 l -17.6213,41.18152 z m 9.4633,-10.57275 2.2842,-6.65692 h 24.6698 l 2.2842,6.65692 z m 20.4276,-38.5057 q -1.7621,0 -3.1327,-0.7179 -1.3705,-0.71791 -2.48,-1.56634 -1.0442,-0.91369 -2.0884,-1.6316 -1.0443,-0.7179 -2.0885,-0.7179 -1.4358,0 -2.2842,1.24002 -0.8485,1.24001 -0.9137,2.93687 h -4.7643 q 0.065,-3.9811 2.0232,-6.59165 2.0232,-2.67582 5.4169,-2.67582 1.8274,0 3.1979,0.7179 1.3706,0.65264 2.4148,1.56633 1.1095,0.9137 2.1537,1.6316 1.0442,0.65264 2.0885,0.65264 1.4358,0 2.2189,-1.17475 0.8485,-1.24001 0.9137,-2.87161 h 4.6338 q -0.065,3.91583 -2.0232,6.59165 -1.8927,2.61056 -5.2864,2.61056 z m 46.2069,49.73109 q -5.3517,0 -9.8549,-1.76212 -4.5032,-1.76213 -7.8317,-4.8948 -3.3284,-3.19793 -5.1558,-7.44008 -1.8274,-4.30742 -1.8274,-9.398 0,-5.09059 1.8274,-9.33274 1.8274,-4.30742 5.1558,-7.44009 3.3285,-3.19793 7.8317,-4.96005 4.5032,-1.76213 9.7896,-1.76213 5.3516,0 9.7896,1.76213 4.5032,1.76212 7.8317,4.96005 3.3284,3.13267 5.1558,7.44009 1.8274,4.24215 1.8274,9.33274 0,5.09058 -1.8274,9.398 -1.8274,4.30742 -5.1558,7.44008 -3.3285,3.13267 -7.8317,4.8948 -4.438,1.76212 -9.7243,1.76212 z m -0.065,-7.44008 q 3.459,0 6.3959,-1.17475 2.9368,-1.17475 5.0905,-3.32846 2.1538,-2.21898 3.3285,-5.09059 1.24,-2.93687 1.24,-6.46112 0,-3.52425 -1.24,-6.39587 -1.1747,-2.93687 -3.3285,-5.09058 -2.1537,-2.21897 -5.0905,-3.39372 -2.9369,-1.17475 -6.3959,-1.17475 -3.459,0 -6.3959,1.17475 -2.8716,1.17475 -5.0905,3.39372 -2.1538,2.15371 -3.3938,5.09058 -1.1747,2.87162 -1.1747,6.39587 0,3.45898 1.1747,6.39586 1.24,2.93687 3.3938,5.15585 2.1537,2.15371 5.0905,3.32846 2.9369,1.17475 6.3959,1.17475 z m 34.133,7.24429 q -2.219,0 -3.7853,-1.50107 -1.5663,-1.56633 -1.5663,-3.91583 0,-2.48003 1.5663,-3.91584 1.5663,-1.50107 3.7853,-1.50107 2.219,0 3.7853,1.50107 1.5663,1.43581 1.5663,3.91584 0,2.3495 -1.5663,3.91583 -1.5663,1.50107 -3.7853,1.50107 z m 32.1097,-0.45685 v -45.68473 h 33.3499 v 7.11377 h -24.8655 v 31.4572 h 25.7792 v 7.11376 z m 7.8317,-19.7097 v -6.98323 h 22.7119 v 6.98323 z m 48.7522,19.7097 -19.9708,-45.68473 h 9.2022 l 17.8171,41.31205 h -5.2864 l 18.0129,-41.31205 h 8.4843 l -19.9055,45.68473 z m 54.013,0.65264 q -5.3516,0 -9.8548,-1.76212 -4.5032,-1.76213 -7.8317,-4.8948 -3.3285,-3.19793 -5.1559,-7.44008 -1.8273,-4.30742 -1.8273,-9.398 0,-5.09059 1.8273,-9.33274 1.8274,-4.30742 5.1559,-7.44009 3.3285,-3.19793 7.8317,-4.96005 4.5032,-1.76213 9.7896,-1.76213 5.3516,0 9.7895,1.76213 4.5032,1.76212 7.8317,4.96005 3.3285,3.13267 5.1559,7.44009 1.8273,4.24215 1.8273,9.33274 0,5.09058 -1.8273,9.398 -1.8274,4.30742 -5.1559,7.44008 -3.3285,3.13267 -7.8317,4.8948 -4.4379,1.76212 -9.7243,1.76212 z m -0.065,-7.44008 q 3.4589,0 6.3958,-1.17475 2.9369,-1.17475 5.0906,-3.32846 2.1537,-2.21898 3.3285,-5.09059 1.24,-2.93687 1.24,-6.46112 0,-3.52425 -1.24,-6.39587 -1.1748,-2.93687 -3.3285,-5.09058 -2.1537,-2.21897 -5.0906,-3.39372 -2.9369,-1.17475 -6.3958,-1.17475 -3.459,0 -6.3959,1.17475 -2.8716,1.17475 -5.0906,3.39372 -2.1537,2.15371 -3.3937,5.09058 -1.1748,2.87162 -1.1748,6.39587 0,3.45898 1.1748,6.39586 1.24,2.93687 3.3937,5.15585 2.1537,2.15371 5.0906,3.32846 2.9369,1.17475 6.3959,1.17475 z m 33.6109,6.78744 v -45.68473 h 8.4843 v 38.5057 h 23.8866 v 7.17903 z m 58.0706,0.65264 q -9.398,0 -14.7496,-5.28637 -5.2864,-5.28638 -5.2864,-15.27176 v -25.77924 h 8.4843 v 25.45292 q 0,7.0485 3.0021,10.24644 3.0674,3.19793 8.6149,3.19793 5.5474,0 8.5495,-3.19793 Q 2517,695.90055 2517,688.85205 v -25.45292 h 8.3538 v 25.77924 q 0,9.98538 -5.3517,15.27176 -5.2864,5.28637 -14.6191,5.28637 z m 24.4087,-0.65264 20.5581,-45.68473 h 8.3538 l 20.6234,45.68473 h -8.8759 l -17.6865,-41.18152 h 3.3937 l -17.6213,41.18152 z m 9.4632,-10.57275 2.2843,-6.65692 h 24.6697 l 2.2843,6.65692 z m 85.0389,11.22539 q -5.2211,0 -9.7243,-1.69686 -4.438,-1.76213 -7.7664,-4.89479 -3.2632,-3.19793 -5.0906,-7.50535 -1.8274,-4.30742 -1.8274,-9.398 0,-5.09059 1.8274,-9.398 1.8274,-4.30742 5.1558,-7.44009 3.3285,-3.19793 7.7664,-4.89479 4.438,-1.76213 9.7244,-1.76213 5.6127,0 10.2464,1.95792 4.6337,1.89265 7.8317,5.67796 l -5.4822,5.15585 q -2.48,-2.67582 -5.5474,-3.9811 -3.0674,-1.37054 -6.6569,-1.37054 -3.5896,0 -6.5917,1.17475 -2.9369,1.17475 -5.1558,3.32846 -2.1538,2.15371 -3.3938,5.09058 -1.1747,2.93688 -1.1747,6.46113 0,3.52425 1.1747,6.46112 1.24,2.93688 3.3938,5.09059 2.2189,2.15371 5.1558,3.32846 3.0021,1.17475 6.5917,1.17475 3.5895,0 6.6569,-1.30528 3.0674,-1.37054 5.5474,-4.11163 l 5.4822,5.22111 q -3.198,3.72005 -7.8317,5.67796 -4.6337,1.95792 -10.3117,1.95792 z m 44.9211,0 q -5.3516,0 -9.8549,-1.76212 -4.5032,-1.76213 -7.8316,-4.8948 -3.3285,-3.19793 -5.1559,-7.44008 -1.8274,-4.30742 -1.8274,-9.398 0,-5.09059 1.8274,-9.33274 1.8274,-4.30742 5.1559,-7.44009 3.3284,-3.19793 7.8316,-4.96005 4.5033,-1.76213 9.7896,-1.76213 5.3517,0 9.7896,1.76213 4.5032,1.76212 7.8317,4.96005 3.3284,3.13267 5.1558,7.44009 1.8274,4.24215 1.8274,9.33274 0,5.09058 -1.8274,9.398 -1.8274,4.30742 -5.1558,7.44008 -3.3285,3.13267 -7.8317,4.8948 -4.4379,1.76212 -9.7243,1.76212 z m -0.065,-7.44008 q 3.459,0 6.3959,-1.17475 2.9369,-1.17475 5.0906,-3.32846 2.1537,-2.21898 3.3284,-5.09059 1.2401,-2.93687 1.2401,-6.46112 0,-3.52425 -1.2401,-6.39587 -1.1747,-2.93687 -3.3284,-5.09058 -2.1537,-2.21897 -5.0906,-3.39372 -2.9369,-1.17475 -6.3959,-1.17475 -3.459,0 -6.3958,1.17475 -2.8716,1.17475 -5.0906,3.39372 -2.1537,2.15371 -3.3937,5.09058 -1.1748,2.87162 -1.1748,6.39587 0,3.45898 1.1748,6.39586 1.24,2.93687 3.3937,5.15585 2.1537,2.15371 5.0906,3.32846 2.9368,1.17475 6.3958,1.17475 z m 33.611,6.78744 v -45.68473 h 6.9832 l 19.9708,33.34986 h -3.6548 l 19.6445,-33.34986 h 6.9832 l 0.065,45.68473 h -8.0275 l -0.065,-33.0888 h 1.6969 l -16.7076,27.86769 h -3.7853 l -16.9686,-27.86769 h 1.9579 v 33.0888 z m 80.3399,0 v -45.68473 h 18.796 q 6.0695,0 10.3769,1.95792 4.3727,1.95792 6.7222,5.61269 2.3495,3.65478 2.3495,8.6801 0,5.02532 -2.3495,8.6801 -2.3495,3.65478 -6.7222,5.6127 -4.3074,1.95791 -10.3769,1.95791 h -14.097 l 3.7853,-3.98109 v 17.1644 z m 8.4843,-16.25071 -3.7853,-4.11162 h 13.7054 q 5.6127,0 8.419,-2.34951 2.8716,-2.41476 2.8716,-6.72218 0,-4.37268 -2.8716,-6.72218 -2.8063,-2.3495 -8.419,-2.3495 h -13.7054 l 3.7853,-4.17689 z m 38.2445,16.25071 v -45.68473 h 18.7308 q 9.1369,0 14.2928,4.30742 5.2211,4.30742 5.2211,11.94329 0,5.02532 -2.3495,8.6801 -2.3495,3.58952 -6.7222,5.54743 -4.3074,1.89266 -10.377,1.89266 h -14.097 l 3.7853,-3.85057 v 17.1644 z m 29.8909,0 -11.5517,-16.57703 h 9.0717 l 11.6169,16.57703 z m -21.4066,-16.25071 -3.7853,-4.04636 h 13.7055 q 5.6126,0 8.419,-2.41477 2.8716,-2.41476 2.8716,-6.72218 0,-4.37268 -2.8716,-6.72218 -2.8064,-2.3495 -8.419,-2.3495 h -13.7055 l 3.7853,-4.17689 z m 60.6303,16.90335 q -5.3516,0 -9.8548,-1.76212 -4.5033,-1.76213 -7.8317,-4.8948 -3.3285,-3.19793 -5.1559,-7.44008 -1.8274,-4.30742 -1.8274,-9.398 0,-5.09059 1.8274,-9.33274 1.8274,-4.30742 5.1559,-7.44009 3.3284,-3.19793 7.8317,-4.96005 4.5032,-1.76213 9.7895,-1.76213 5.3517,0 9.7896,1.76213 4.5032,1.76212 7.8317,4.96005 3.3284,3.13267 5.1558,7.44009 1.8274,4.24215 1.8274,9.33274 0,5.09058 -1.8274,9.398 -1.8274,4.30742 -5.1558,7.44008 -3.3285,3.13267 -7.8317,4.8948 -4.4379,1.76212 -9.7243,1.76212 z m -0.065,-7.44008 q 3.459,0 6.3959,-1.17475 2.9369,-1.17475 5.0906,-3.32846 2.1537,-2.21898 3.3284,-5.09059 1.2401,-2.93687 1.2401,-6.46112 0,-3.52425 -1.2401,-6.39587 -1.1747,-2.93687 -3.3284,-5.09058 -2.1537,-2.21897 -5.0906,-3.39372 -2.9369,-1.17475 -6.3959,-1.17475 -3.459,0 -6.3958,1.17475 -2.8716,1.17475 -5.0906,3.39372 -2.1537,2.15371 -3.3937,5.09058 -1.1748,2.87162 -1.1748,6.39587 0,3.45898 1.1748,6.39586 1.24,2.93687 3.3937,5.15585 2.1537,2.15371 5.0906,3.32846 2.9368,1.17475 6.3958,1.17475 z m 33.611,6.78744 v -45.68473 h 18.796 q 6.0696,0 10.377,1.95792 4.3727,1.95792 6.7222,5.61269 2.3495,3.65478 2.3495,8.6801 0,5.02532 -2.3495,8.6801 -2.3495,3.65478 -6.7222,5.6127 -4.3074,1.95791 -10.377,1.95791 h -14.097 l 3.7853,-3.98109 v 17.1644 z m 8.4843,-16.25071 -3.7853,-4.11162 h 13.7054 q 5.6127,0 8.4191,-2.34951 2.8716,-2.41476 2.8716,-6.72218 0,-4.37268 -2.8716,-6.72218 -2.8064,-2.3495 -8.4191,-2.3495 h -13.7054 l 3.7853,-4.17689 z m 60.3039,16.90335 q -5.3517,0 -9.8549,-1.76212 -4.5032,-1.76213 -7.8317,-4.8948 -3.3284,-3.19793 -5.1558,-7.44008 -1.8274,-4.30742 -1.8274,-9.398 0,-5.09059 1.8274,-9.33274 1.8274,-4.30742 5.1558,-7.44009 3.3285,-3.19793 7.8317,-4.96005 4.5032,-1.76213 9.7896,-1.76213 5.3516,0 9.7896,1.76213 4.5032,1.76212 7.8317,4.96005 3.3284,3.13267 5.1558,7.44009 1.8274,4.24215 1.8274,9.33274 0,5.09058 -1.8274,9.398 -1.8274,4.30742 -5.1558,7.44008 -3.3285,3.13267 -7.8317,4.8948 -4.438,1.76212 -9.7243,1.76212 z m -0.065,-7.44008 q 3.459,0 6.3959,-1.17475 2.9368,-1.17475 5.0905,-3.32846 2.1538,-2.21898 3.3285,-5.09059 1.24,-2.93687 1.24,-6.46112 0,-3.52425 -1.24,-6.39587 -1.1747,-2.93687 -3.3285,-5.09058 -2.1537,-2.21897 -5.0905,-3.39372 -2.9369,-1.17475 -6.3959,-1.17475 -3.459,0 -6.3959,1.17475 -2.8716,1.17475 -5.0905,3.39372 -2.1538,2.15371 -3.3938,5.09058 -1.1747,2.87162 -1.1747,6.39587 0,3.45898 1.1747,6.39586 1.24,2.93687 3.3938,5.15585 2.1537,2.15371 5.0905,3.32846 2.9369,1.17475 6.3959,1.17475 z m -5.4822,-42.61733 8.8107,-8.94115 h 9.5938 l -11.356,8.94115 z m 53.2554,50.05741 q -5.3516,0 -10.2464,-1.50107 -4.8948,-1.56633 -7.7664,-3.9811 l 2.9369,-6.59165 q 2.7411,2.15371 6.7874,3.58951 4.0464,1.43581 8.2885,1.43581 3.5896,0 5.8085,-0.78317 2.219,-0.78316 3.2632,-2.08844 1.0442,-1.37054 1.0442,-3.0674 0,-2.08845 -1.501,-3.32846 -1.5011,-1.30528 -3.9159,-2.02318 -2.3495,-0.78317 -5.2863,-1.43581 -2.8716,-0.65264 -5.8085,-1.50107 -2.8716,-0.91369 -5.2864,-2.28424 -2.3495,-1.4358 -3.8506,-3.7853 -1.501,-2.3495 -1.501,-6.00428 0,-3.72004 1.9579,-6.78745 2.0232,-3.13266 6.0695,-4.96005 4.1116,-1.89266 10.377,-1.89266 4.1116,0 8.158,1.04423 4.0463,1.04422 7.0485,3.00213 l -2.6758,6.59166 q -3.0675,-1.82739 -6.3306,-2.67582 -3.2632,-0.9137 -6.2654,-0.9137 -3.5242,0 -5.7432,0.84843 -2.1537,0.84844 -3.1979,2.21898 -0.979,1.37054 -0.979,3.13266 0,2.08845 1.4358,3.39373 1.5011,1.24001 3.8506,1.95791 2.4147,0.71791 5.3516,1.43581 2.9369,0.65264 5.8085,1.50107 2.9369,0.84843 5.2864,2.21897 2.4147,1.37054 3.8506,3.72004 1.501,2.34951 1.501,5.93902 0,3.65478 -2.0232,6.78745 -1.9579,3.0674 -6.0695,4.96005 -4.1116,1.82739 -10.377,1.82739 z m 26.8887,-0.65264 v -45.68473 h 8.4843 v 45.68473 z m 30.0867,0 v -38.5057 h -15.1413 v -7.17903 h 38.7668 v 7.17903 h -15.1412 v 38.5057 z m 50.7753,0.65264 q -5.3517,0 -9.8549,-1.76212 -4.5032,-1.76213 -7.8316,-4.8948 -3.3285,-3.19793 -5.1559,-7.44008 -1.8274,-4.30742 -1.8274,-9.398 0,-5.09059 1.8274,-9.33274 1.8274,-4.30742 5.1559,-7.44009 3.3284,-3.19793 7.8316,-4.96005 4.5032,-1.76213 9.7896,-1.76213 5.3517,0 9.7896,1.76213 4.5032,1.76212 7.8317,4.96005 3.3284,3.13267 5.1558,7.44009 1.8274,4.24215 1.8274,9.33274 0,5.09058 -1.8274,9.398 -1.8274,4.30742 -5.1558,7.44008 -3.3285,3.13267 -7.8317,4.8948 -4.4379,1.76212 -9.7243,1.76212 z m -0.065,-7.44008 q 3.459,0 6.3959,-1.17475 2.9369,-1.17475 5.0906,-3.32846 2.1537,-2.21898 3.3284,-5.09059 1.24,-2.93687 1.24,-6.46112 0,-3.52425 -1.24,-6.39587 -1.1747,-2.93687 -3.3284,-5.09058 -2.1537,-2.21897 -5.0906,-3.39372 -2.9369,-1.17475 -6.3959,-1.17475 -3.459,0 -6.3958,1.17475 -2.8717,1.17475 -5.0906,3.39372 -2.1537,2.15371 -3.3938,5.09058 -1.1747,2.87162 -1.1747,6.39587 0,3.45898 1.1747,6.39586 1.2401,2.93687 3.3938,5.15585 2.1537,2.15371 5.0906,3.32846 2.9368,1.17475 6.3958,1.17475 z m 34.1331,7.24429 q -2.219,0 -3.7853,-1.50107 -1.5664,-1.56633 -1.5664,-3.91583 0,-2.48003 1.5664,-3.91584 1.5663,-1.50107 3.7853,-1.50107 2.219,0 3.7853,1.50107 1.5663,1.43581 1.5663,3.91584 0,2.3495 -1.5663,3.91583 -1.5663,1.50107 -3.7853,1.50107 z"
           id="text14"
           aria-label="ESTUDE COM DIREÇÃO. EVOLUA COM PROPÓSITO."
           transform="translate(7.2472249e-6)" /><path
           d="m 5236.8457,2003.7088 v -700 h 134 l 298,494 h -71 l 293,-494 h 133 l 2,700 h -152 l -1,-467 h 28 l -234,393 h -73 l -239,-393 h 34 v 467 z m 954.9999,0 v -700 h 162 v 700 z m 557.9991,12 q -84,0 -161,-22 -77,-23 -124,-59 l 55,-122 q 45,32 106,53 62,20 125,20 48,0 77,-9 30,-10 44,-27 14,-17 14,-39 0,-28 -22,-44 -22,-17 -58,-27 -36,-11 -80,-20 -43,-10 -87,-24 -43,-14 -79,-36 -36,-22 -59,-58 -22,-36 -22,-92 0,-60 32,-109 33,-50 98,-79 66,-30 165,-30 66,0 130,16 64,15 113,46 l -50,123 q -49,-28 -98,-41 -49,-14 -96,-14 -47,0 -77,11 -30,11 -43,29 -13,17 -13,40 0,27 22,44 22,16 58,26 36,10 79,20 44,10 87,23 44,13 80,35 36,22 58,58 23,36 23,91 0,59 -33,108 -33,49 -99,79 -65,30 -165,30 z m 638.0005,0 q -84,0 -161,-22 -77,-23 -124,-59 l 55,-122 q 45,32 106,53 62,20 125,20 48,0 77,-9 30,-10 44,-27 14,-17 14,-39 0,-28 -22,-44 -22,-17 -58,-27 -36,-11 -80,-20 -43,-10 -87,-24 -43,-14 -79,-36 -36,-22 -59,-58 -22,-36 -22,-92 0,-60 32,-109 33,-50 98,-79 66,-30 165,-30 66,0 130,16 64,15 113,46 l -50,123 q -49,-28 -98,-41 -49,-14 -96,-14 -47,0 -77,11 -30,11 -43,29 -13,17 -13,40 0,27 22,44 22,16 58,26 36,10 79,20 44,10 87,23 44,13 80,35 36,22 58,58 23,36 23,91 0,59 -33,108 -33,49 -99,79 -65,30 -165,30 z m 316.0005,-12 312,-700 h 160 l 313,700 h -170 l -256,-618 h 64 l -257,618 z m 156,-150 43,-123 h 360 l 44,123 z m 316,-601 q -28,0 -49,-10 -21,-10 -38,-23 -17,-13 -32,-23 -15,-10 -31,-10 -21,0 -34,17 -12,16 -13,42 h -84 q 1,-67 33,-109 33,-43 88,-43 28,0 49,10 22,10 38,23 17,13 32,24 16,10 32,10 21,0 33,-17 12,-17 13,-41 h 83 q -1,65 -33,108 -32,42 -87,42 z m 716.0005,763 q -83,0 -154,-27 -70,-27 -122,-76 -51,-49 -80,-115 -28,-66 -28,-144 0,-78 28,-144 29,-66 81,-115 52,-49 122,-76 70,-27 152,-27 83,0 152,27 70,27 121,76 52,49 81,115 29,65 29,144 0,78 -29,145 -29,66 -81,115 -51,48 -121,75 -69,27 -151,27 z m -1,-138 q 47,0 86,-16 40,-16 70,-46 30,-30 46,-71 17,-41 17,-91 0,-50 -17,-91 -16,-41 -46,-71 -29,-30 -69,-46 -40,-16 -87,-16 -47,0 -87,16 -39,16 -69,46 -30,30 -47,71 -16,41 -16,91 0,49 16,91 17,41 46,71 30,30 70,46 40,16 87,16 z"
           id="text1-2"
           style="font-weight:bold;font-size:1000px;font-family:Montserrat;-inkscape-font-specification:'Montserrat Bold';white-space:pre;fill:#ffffff;fill-opacity:0.99607843"
           transform="matrix(0.26458332,0,0,0.26458332,68.972576,85.757165)"
           aria-label="MISSÃO" /><path
           d="m 5576.8457,2015.7088 q -83,0 -154,-27 -70,-27 -122,-76 -51,-49 -80,-115 -28,-66 -28,-144 0,-78 28,-144 29,-66 81,-115 52,-49 122,-76 70,-27 152,-27 83,0 152,27 70,27 121,76 52,49 81,115 29,65 29,144 0,78 -29,145 -29,66 -81,115 -51,48 -121,75 -69,27 -151,27 z m -1,-138 q 47,0 86,-16 40,-16 70,-46 30,-30 46,-71 17,-41 17,-91 0,-50 -17,-91 -16,-41 -46,-71 -29,-30 -69,-46 -40,-16 -87,-16 -47,0 -87,16 -39,16 -69,46 -30,30 -47,71 -16,41 -16,91 0,49 16,91 17,41 46,71 30,30 70,46 40,16 87,16 z m 402.9996,126 312,-700 h 160 l 313,700 h -170 l -256,-618 h 64 l -257,618 z m 156,-150 43,-123 h 360 l 44,123 z m 702.0008,150 v -700 h 342 q 132,0 198,50 67,50 67,132 0,55 -27,96 -27,40 -74,62 -47,22 -108,22 l 19,-41 q 66,0 117,22 51,21 79,63 29,42 29,103 0,90 -71,141 -71,50 -209,50 z m 161,-122 h 189 q 63,0 95,-20 33,-21 33,-66 0,-44 -33,-65 -32,-22 -95,-22 h -201 v -118 h 173 q 59,0 90,-20 32,-21 32,-63 0,-41 -32,-61 -31,-21 -90,-21 h -161 z"
           id="text1"
           style="font-weight:bold;font-size:1000px;font-family:Montserrat;-inkscape-font-specification:'Montserrat Bold';white-space:pre;fill:#ffffff;fill-opacity:0.99607843"
           transform="matrix(0.26458332,0,0,0.26458332,1244.2521,85.757165)"
           aria-label="OAB" /></g><g
         id="g15"
         transform="translate(1893.8141,749.97656)"
         style="fill:#1a1a1a"><g
           id="g12"
           style="display:none;opacity:1;fill:#ffffff"><path
             style="display:inline;opacity:1;fill:#ffffff;fill-opacity:0;stroke-width:0.264583"
             d="m 60.677789,1106.1725 156.769701,-537.61404 348.70996,-52.99921 82.1369,-36.59955 489.93535,-309.28879 3.4123,45.3819 -72.3237,59.93944 -288.51813,215.85584 -519.20084,614.72031 z"
             id="path11" /></g><g
           id="g2"
           style="display:inline;opacity:1;fill:#ffffff;fill-opacity:0.99607843"
           transform="translate(-461.13095,-385.4979)"><path
             style="display:inline;opacity:1;fill:#ffffff;fill-opacity:0.99607843;stroke-width:0.264583"
             d="M 1529.6224,1432.0573 H 1332.8385 V 868.99087 c 45.1467,-27.47596 57.7292,-37.99145 84.5585,-88.87286 l 113.0522,-119.62784 z"
             id="path1" /><path
             style="display:inline;opacity:1;fill:#ffffff;fill-opacity:0.99607843;stroke-width:0.264583"
             d="m 1709.4729,385.49791 -251.5446,67.26105 -11.3746,41.04749 87.7132,11.6219 c -140.3125,115.11464 -278.1427,228.86074 -424.8416,359.02926 120.431,-57.93463 345.783,-211.21048 489.9353,-309.28879 3.7167,37.64386 5.3938,70.8264 2.0998,95.8511 l 39.4124,-23.31878 z"
             id="path2" /><path
             style="display:inline;opacity:1;fill:#ffffff;fill-opacity:0.99607843;stroke-width:0.264583"
             d="m 1037.2227,944.68469 71.116,-72.73512 c 10.0467,4.40064 27.8154,8.05401 43.7158,9.21644 -53.2228,29.93266 -83.9028,47.03703 -114.8318,63.51868 z"
             id="path3" /><path
             style="display:inline;opacity:1;fill:#ffffff;fill-opacity:0.99607843;stroke-width:0.264583"
             d="m 1530.4492,660.49016 c -93.6589,72.62243 -181.7281,189.59053 -308.1804,197.74407 l -17.0073,7.00956 c 47.6311,-1.35399 120.8494,12.35341 212.1355,-83.7033 z"
             id="path4" /></g><g
           id="g11"
           style="display:inline;opacity:1;fill:#ffffff;fill-opacity:0.99607843"
           transform="translate(-461.13095,-385.4979)"><path
             style="display:inline;opacity:1;fill:#ffffff;fill-opacity:0.99607843;stroke-width:0.264583"
             d="m 722.73027,1491.0663 4.00354,0.1741 c 123.57826,-98.771 325.47319,-199.6587 515.19729,-232.2839 V 876.346 c -330.935,216.372 -465.19639,415.1052 -519.20083,614.7203 z"
             id="path5" /><path
             style="display:inline;opacity:1;fill:#ffffff;fill-opacity:0.99607843;stroke-width:0.264583"
             d="m 461.13094,527.90674 v 963.76366 h 60.67779 c 61.8237,-119.8857 123.50308,-222.9342 215.39306,-318.1655 -40.89815,14.0696 -54.55227,-11.8292 -59.82601,-41.5268 l 1.20265,-177.92173 c 84.92449,53.54163 137.97872,84.83413 103.84071,169.04333 75.00851,-87.8447 168.0568,-161.25754 244.86926,-222.04255 z"
             id="path6" /></g></g></g></g></svg>
